<svg id="avatar" xmlns="http://www.w3.org/2000/svg" width="25.457" height="29.928" viewBox="0 0 25.457 29.928">
  <g id="Group_14" data-name="Group 14">
    <path id="Path_2" data-name="Path 2" d="M143.441,16.126h.2a5.719,5.719,0,0,0,4.369-1.89c2.386-2.69,1.989-7.3,1.946-7.741-.155-3.3-1.717-4.884-3.006-5.621A6.89,6.89,0,0,0,143.615,0h-.105a6.9,6.9,0,0,0-3.334.849c-1.3.738-2.888,2.318-3.043,5.646-.043.44-.44,5.051,1.946,7.741A5.7,5.7,0,0,0,143.441,16.126ZM138.787,6.65c0-.019.006-.037.006-.05.2-4.444,3.359-4.921,4.71-4.921h.074c1.673.037,4.518.719,4.71,4.921a.121.121,0,0,0,.006.05c.006.043.44,4.258-1.531,6.476a4.062,4.062,0,0,1-3.192,1.326h-.062a4.049,4.049,0,0,1-3.186-1.326C138.359,10.92,138.781,6.687,138.787,6.65Z" transform="translate(-130.822)" fill="#272d3b"/>
    <path id="Path_3" data-name="Path 3" d="M61.528,266.951v-.019c0-.05-.006-.1-.006-.155-.037-1.227-.118-4.1-2.807-5.014l-.062-.019a17.884,17.884,0,0,1-5.144-2.343.836.836,0,1,0-.961,1.37,19.3,19.3,0,0,0,5.658,2.584c1.444.514,1.605,2.058,1.649,3.471a1.246,1.246,0,0,0,.006.155,11.249,11.249,0,0,1-.13,1.915A22.808,22.808,0,0,1,48.8,271.438a22.94,22.94,0,0,1-10.932-2.547,10.65,10.65,0,0,1-.13-1.915c0-.05.006-.1.006-.155.043-1.413.2-2.956,1.649-3.471a19.482,19.482,0,0,0,5.658-2.584.836.836,0,0,0-.961-1.37,17.686,17.686,0,0,1-5.144,2.343c-.025.006-.043.012-.062.019-2.69.923-2.77,3.793-2.807,5.014a1.244,1.244,0,0,1-.006.155v.019a9.5,9.5,0,0,0,.316,2.807.8.8,0,0,0,.322.39c.186.124,4.642,2.962,12.1,2.962s11.912-2.845,12.1-2.962a.83.83,0,0,0,.322-.39A9.971,9.971,0,0,0,61.528,266.951Z" transform="translate(-36.073 -243.178)" fill="#272d3b"/>
  </g>
</svg>
