<svg xmlns="http://www.w3.org/2000/svg" width="15.22" height="19.007" viewBox="0 0 15.22 19.007">
  <g id="Group_179" data-name="Group 179" transform="translate(-837.072 -459.248)">
    <path id="Path_17" data-name="Path 17" d="M58.988,85.4H50.153a1.5,1.5,0,0,0-1.5,1.5V99.58a1.5,1.5,0,0,0,1.5,1.5h8.836a1.5,1.5,0,0,0,1.5-1.5V86.9A1.508,1.508,0,0,0,58.988,85.4Zm.448,14.176a.452.452,0,0,1-.452.452H50.149a.452.452,0,0,1-.452-.452V86.9a.452.452,0,0,1,.452-.452h8.836a.452.452,0,0,1,.452.452Z" transform="translate(788.422 377.172)" fill="#272d3b"/>
    <path id="Path_18" data-name="Path 18" d="M145.788,0h-8.836a1.5,1.5,0,0,0-1.5,1.5.525.525,0,1,0,1.051,0,.452.452,0,0,1,.452-.452h8.836a.452.452,0,0,1,.452.452V14.18a.452.452,0,0,1-.452.452.525.525,0,0,0,0,1.051,1.5,1.5,0,0,0,1.5-1.5V1.5A1.5,1.5,0,0,0,145.788,0Z" transform="translate(705.001 459.248)" fill="#272d3b"/>
  </g>
</svg>
