<svg id="Group_186" data-name="Group 186" xmlns="http://www.w3.org/2000/svg" width="40.474" height="40.483" viewBox="0 0 40.474 40.483">
  <path id="Path_56" data-name="Path 56" d="M35.042,68.022H19.267V52.247A1.143,1.143,0,0,0,18.12,51.1a18.07,18.07,0,1,0,18.07,18.07A1.154,1.154,0,0,0,35.042,68.022ZM18.12,84.945a15.775,15.775,0,0,1-1.147-31.507V69.17a1.143,1.143,0,0,0,1.147,1.147H33.852A15.79,15.79,0,0,1,18.12,84.945Z" transform="translate(-0.05 -46.757)" fill="#4c8ce6"/>
  <path id="Path_57" data-name="Path 57" d="M269.367,18.01A18.067,18.067,0,0,0,251.3,0a1.143,1.143,0,0,0-1.147,1.147V18.07a1.143,1.143,0,0,0,1.147,1.147H268.22a1.143,1.143,0,0,0,1.147-1.147Zm-16.922-1.079V2.346A15.786,15.786,0,0,1,267.03,16.931H252.445Z" transform="translate(-228.893 0)" fill="#4c8ce6"/>
</svg>
