<svg xmlns="http://www.w3.org/2000/svg" width="32.958" height="31.488" viewBox="0 0 32.958 31.488">
  <path id="Path_81" data-name="Path 81" d="M31.888,22.533a.891.891,0,0,0-.714-.6l-9.962-1.416L16.729,11.5a.888.888,0,0,0-.793-.492h0a.883.883,0,0,0-.793.5l-4.424,9.038L.757,22.028a.891.891,0,0,0-.714.6.875.875,0,0,0,.229.9L7.5,30.541,5.83,40.464A.89.89,0,0,0,6.7,41.5a.841.841,0,0,0,.413-.1l8.893-4.712,8.92,4.66a.9.9,0,0,0,.406.1h0a.889.889,0,0,0,.885-.885.691.691,0,0,0-.026-.2l-1.724-9.863,7.183-7.045A.867.867,0,0,0,31.888,22.533Zm-8.979,7.019a.875.875,0,0,0-.249.786l1.5,8.605L16.414,34.9a.9.9,0,0,0-.826,0l-7.72,4.09,1.448-8.618a.884.884,0,0,0-.256-.78L2.8,23.509l8.644-1.285a.878.878,0,0,0,.662-.485l3.841-7.845,3.893,7.825a.9.9,0,0,0,.668.485l8.651,1.232Z" transform="translate(0.513 -10.511)" fill="#2f8eed" stroke="#2f8eed" stroke-width="1"/>
</svg>
