<svg xmlns="http://www.w3.org/2000/svg" width="18.149" height="19.095" viewBox="0 0 18.149 19.095">
  <path id="Path_61" data-name="Path 61" d="M27.278,3.914h-.491V2.822A2.826,2.826,0,0,0,23.965,0H18.041a2.826,2.826,0,0,0-2.822,2.822V3.914h-.447A2.826,2.826,0,0,0,11.95,6.736v4.551a2.826,2.826,0,0,0,2.822,2.822h.443v3.578A1.412,1.412,0,0,0,16.624,19.1h8.75a1.412,1.412,0,0,0,1.409-1.409V14.109h.495A2.826,2.826,0,0,0,30.1,11.287V6.736A2.826,2.826,0,0,0,27.278,3.914ZM16.284,2.822a1.757,1.757,0,0,1,1.753-1.753h5.921A1.757,1.757,0,0,1,25.71,2.822V3.914H16.284Zm9.431,14.873a.343.343,0,0,1-.34.34h-8.75a.343.343,0,0,1-.34-.34v-5.9h9.431Zm3.316-6.4a1.757,1.757,0,0,1-1.753,1.753h-.491V11.794h.7a.534.534,0,0,0,0-1.069H14.431a.534.534,0,1,0,0,1.069h.788v1.251h-.447a1.757,1.757,0,0,1-1.753-1.753V6.74a1.757,1.757,0,0,1,1.753-1.753H27.278A1.757,1.757,0,0,1,29.031,6.74Z" transform="translate(-11.95)" fill="#272d3b"/>
</svg>
