<svg xmlns="http://www.w3.org/2000/svg" width="29.681" height="31.425" viewBox="0 0 29.681 31.425">
  <path id="Path_72" data-name="Path 72" d="M37.036,19.546a5.445,5.445,0,0,0-4.309,2.123L24.369,17a5.457,5.457,0,0,0,.3-1.794,5.338,5.338,0,0,0-.31-1.8l8.352-4.662a5.434,5.434,0,1,0-1.125-3.3,5.311,5.311,0,0,0,.31,1.8L23.554,11.9a5.434,5.434,0,1,0,.013,6.6l8.352,4.669a5.437,5.437,0,1,0,5.117-3.626Zm0-17.834A3.734,3.734,0,1,1,33.3,5.446,3.737,3.737,0,0,1,37.036,1.712ZM19.246,18.94a3.734,3.734,0,1,1,3.734-3.734A3.737,3.737,0,0,1,19.246,18.94Zm17.79,9.773a3.734,3.734,0,1,1,3.734-3.734A3.737,3.737,0,0,1,37.036,28.713Z" transform="translate(-13.3 0.5)" fill="#2f8eed" stroke="#2f8eed" stroke-width="1"/>
</svg>
